<svg xmlns="http://www.w3.org/2000/svg" viewBox="0 0 600 300">
  <rect x="10" y="10" width="280" height="280" fill="#f0f0f0" stroke="#000" stroke-width="2"/>
  <rect x="310" y="10" width="280" height="280" fill="#f0f0f0" stroke="#000" stroke-width="2"/>
  
  <text x="150" y="40" text-anchor="middle" font-size="16" font-weight="bold">중복 데이터</text>
  <text x="450" y="40" text-anchor="middle" font-size="16" font-weight="bold">정규화 데이터</text>
  
  <rect x="30" y="60" width="240" height="40" fill="#ff9999" stroke="#000"/>
  <rect x="30" y="110" width="240" height="40" fill="#ff9999" stroke="#000"/>
  <rect x="30" y="160" width="240" height="40" fill="#ff9999" stroke="#000"/>
  <rect x="30" y="210" width="240" height="40" fill="#ff9999" stroke="#000"/>
  
  <rect x="330" y="60" width="240" height="40" fill="#99ff99" stroke="#000"/>
  <rect x="330" y="110" width="240" height="40" fill="#99ff99" stroke="#000"/>
  <rect x="330" y="180" width="120" height="80" fill="#9999ff" stroke="#000"/>
  
  <text x="150" y="85" text-anchor="middle">학생1 + 학과정보</text>
  <text x="150" y="135" text-anchor="middle">학생2 + 학과정보</text>
  <text x="150" y="185" text-anchor="middle">학생3 + 학과정보</text>
  <text x="150" y="235" text-anchor="middle">학생4 + 학과정보</text>
  
  <text x="450" y="85" text-anchor="middle">학생1</text>
  <text x="450" y="135" text-anchor="middle">학생2</text>
  <text x="390" y="220" text-anchor="middle">학과정보</text>
  
  <path d="M300 150 L 310 150" stroke="#000" stroke-width="2"/>
  <path d="M310 150 L 310 220" stroke="#000" stroke-width="2"/>
  <path d="M310 220 L 320 220" stroke="#000" stroke-width="2"/>
</svg>
